<svg version="1.1" xmlns="http://www.w3.org/2000/svg" viewBox="196.9913043478261 18.863999999999997 570.0173913043478 683.296" style="max-height: 500px" width="570.0173913043478" height="683.296">
 <g class="layer">
  <title>Layer 1</title>
  <path transform="translate(492,29)" id="svg_1" fill="#FD581D" d="m0,0l5,1l9,6l19,11l70,40l26,15l28,16l26,15l14,8l22,13l21,12l16,10l1,5l-22,44l-5,-1l-24,-14l-21,-12l-72,-42l-26,-15l-29,-17l-23,-13l-14,-8l-15,-9l-7,-1l-13,8l-23,13l-48,28l-52,30l-91,52l0,268l25,14l25,15l23,13l15,9l26,15l28,16l24,14l27,15l20,12l14,8l6,0l15,-9l18,-10l15,-9l18,-10l21,-12l24,-14l28,-16l26,-15l24,-14l38,-22l3,1l7,14l14,24l2,4l0,5l-10,6l-26,15l-23,13l-21,12l-25,14l-24,14l-26,15l-24,14l-21,12l-22,13l-23,13l-9,6l-5,-1l-28,-16l-24,-14l-26,-15l-17,-10l-26,-15l-16,-9l-19,-11l-28,-16l-26,-15l-39,-22l-27,-16l-5,-4l-1,-5l0,-323l4,-4l29,-17l21,-12l17,-10l21,-12l19,-11l17,-10l84,-48l23,-13l38,-22l9,-6l1,-1z"/>
 </g>
</svg>