<?xml version="1.0" encoding="UTF-8"?>
<svg version="1.1" viewBox="0 0 964 1048" width="241" height="262" xmlns="http://www.w3.org/2000/svg">
<path transform="translate(492,29)" d="m0 0 5 1 9 6 19 11 70 40 26 15 28 16 26 15 14 8 22 13 21 12 16 10 1 5-22 44-5-1-24-14-21-12-72-42-26-15-29-17-23-13-14-8-15-9-7-1-13 8-23 13-48 28-52 30-91 52v268l25 14 25 15 23 13 15 9 26 15 28 16 24 14 27 15 20 12 14 8h6l15-9 18-10 15-9 18-10 21-12 24-14 28-16 26-15 24-14 38-22 3 1 7 14 14 24 2 4v5l-10 6-26 15-23 13-21 12-25 14-24 14-26 15-24 14-21 12-22 13-23 13-9 6-5-1-28-16-24-14-26-15-17-10-26-15-16-9-19-11-28-16-26-15-39-22-27-16-5-4-1-5v-323l4-4 29-17 21-12 17-10 21-12 19-11 17-10 84-48 23-13 38-22 9-6z" fill="#FD581D"/>
<path transform="translate(493,138)" d="m0 0 16 8 13 8 18 10 27 16 24 14 26 15 14 8 22 13 26 15 5 3v221l-18 10-15 9-17 10h-3l-1-218-20-12-53-31-28-16-16-9-19-11-11 6-23 13-24 14-23 13-22 13-26 15-6 4-1 46v174l-6-2-17-10-26-15-6-4v-219l30-18 16-9 20-12 16-9 77-45 28-16z" fill="#5C2E88"/>
<path transform="translate(494,243)" d="m0 0 15 8 12 8 1 2v279l-2 4-17 10-7 5-5-1-18-11-6-4-1-93v-89l1-102 8-5 17-10z" fill="#5E3189"/>
<path transform="translate(357,746)" d="m0 0h43l11 1 11 4 9 7 6 10 2 8v7l-4 13-8 9-8 4-3 1 2 5 14 23 8 13v2h-31l-14-25-8-13-3-3-1 41h-26l-1-3zm26 20v26h21l7-6 1-9-3-7-4-3-7-1z" fill="#5C2E88"/>
<path transform="translate(492,746)" d="m0 0h33l13 38 13 37 9 26 2 6h-29l-4-10-2-6-38-1-3 12-2 5h-29l3-9 30-86zm16 34-4 10-8 23v3h25l-10-32z" fill="#5C2E88"/>
<path transform="translate(269,746)" d="m0 0h32l4 10 16 47 15 43 2 7h-29l-5-16-39-1-2 9-3 8h-28l1-6 11-30 16-47 8-23zm15 34-3 8-9 26v2h25l-3-11-6-19-2-6z" fill="#5C2E88"/>
<path transform="translate(158,745)" d="m0 0h17l10 2 16 8 10 10 6 10 1 6h-30l-5-5-5-4-6-2h-10l-11 4-7 7-4 13v13l4 11 6 7 9 4 4 1h9l10-5 6-7h31l-2 6-6 11-9 9-12 7-13 3h-22l-13-4-9-6-9-8-6-10-4-9-2-10v-15l3-12 6-12 9-10 10-7 12-5z" fill="#5C2E88"/>
<path transform="translate(570,746)" d="m0 0h28l20 60 5 19 2 1 3-10 12-37 10-31 2-2h26l1 3-20 55-14 40-4 9h-33l-4-8-30-86-4-10z" fill="#5C2F88"/>
<path transform="translate(698,746)" d="m0 0h65v19l-1 1h-38v23h33l2 1v18l-1 1h-34v25h38l1 1v18h-65l-1-11v-95z" fill="#5C2E88"/>
<path transform="translate(792,746)" d="m0 0h21l5 1v87h31l2 1v17l-1 1h-58l-1-1v-105z" fill="#5C2F88"/>
<path transform="translate(568,893)" d="m0 0h6l5 8 6 11 3-3 8-15 1-1h5l1 2v31h-5v-22l-6 10-5 9h-3l-10-19v22h-6z" fill="#5D2F88"/>
<path transform="translate(670,893)" d="m0 0h5l7 8 8 10 2 3 1-20 1-1h5v32l-1 2-5-1-9-11-7-9-1 20h-6z" fill="#5D2F88"/>
<path transform="translate(402,893)" d="m0 0h15l7 2 4 4 1 8-3 6-2 5 4 5 1 3-4 1-3-1-5-8-9-2v10l-4 1-2-1-1-5v-26zm7 5-1 1v11l1 1h11l3-4-1-6-2-2-4-1z" fill="#5E3089"/>
<path transform="translate(265,893)" d="m0 0 6 1 14 18 3 2-1-8 1-12 5-1v33l-3 1-6-5-12-16-1-1-1 21h-5l-1-1v-20z" fill="#5E3089"/>
<path transform="translate(626,893)" d="m0 0h23l1 5-4 1h-14l-1 8h15l2 1-1 4-15 1v8h18v5l-5 1h-15l-4-1-1-2v-30z" fill="#5E318A"/>
<path transform="translate(221,893)" d="m0 0h23l1 3-1 3-17-1v9l16 1v4h-16v7l1 1h16l1 5-7 2h-9l-8-1-1-3v-23z" fill="#5F318A"/>
<path transform="translate(358,893)" d="m0 0h23v6h-17v8h14l2 1v4l-16 1v8l16-1 2 5-4 2h-15l-5-1-1-16v-15z" fill="#62368C"/>
<path transform="translate(502,893)" d="m0 0h5l13 29 1 5-6-1-4-6h-15l-4 6-4 1 1-7 9-21zm1 9-4 7-1 4 1 1h10l-1-7-3-5z" fill="#5E3189"/>
<path transform="translate(447,893)" d="m0 0h25l1 5-2 1h-9v27h-6l-1-26-9-2-1-4z" fill="#5C2E88"/>
<path transform="translate(718,893)" d="m0 0h25l1 4-2 2h-9v27l-3 1-3-2-1-25-9-2z" fill="#5D2F89"/>
<path transform="translate(313,893)" d="m0 0h25l1 4-1 1-9 2-1 26-2 1-3-1-1-26-10-2z" fill="#5C2E88"/>
<path transform="translate(541,893)" d="m0 0h5l1 4v28l-1 1h-6v-32z" fill="#63378D"/>
</svg>
