<svg version="1.1" xmlns="http://www.w3.org/2000/svg" viewBox="102.68695652173912 733.5999999999999 758.6260869565217 205.40800000000002" style="max-height: 500px" width="758.6260869565217" height="205.40800000000002">
 <g class="layer">
  <title>Layer 1</title>
  <path transform="translate(357,746)" id="svg_4" fill="#5C2E88" d="m0,0l43,0l11,1l11,4l9,7l6,10l2,8l0,7l-4,13l-8,9l-8,4l-3,1l2,5l14,23l8,13l0,2l-31,0l-14,-25l-8,-13l-3,-3l-1,41l-26,0l-1,-3l1,-104zm26,20l0,26l21,0l7,-6l1,-9l-3,-7l-4,-3l-7,-1l-15,0z"/>
  <path transform="translate(492,746)" id="svg_5" fill="#5C2E88" d="m0,0l33,0l13,38l13,37l9,26l2,6l-29,0l-4,-10l-2,-6l-38,-1l-3,12l-2,5l-29,0l3,-9l30,-86l4,-12zm16,34l-4,10l-8,23l0,3l25,0l-10,-32l-3,-4z"/>
  <path transform="matrix(1 0 0 1 0 0)" id="svg_6" fill="#5C2E88" d="m269,746l32,0l4,10l16,47l15,43l2,7l-29,0l-5,-16l-39,-1l-2,9l-3,8l-28,0l1,-6l11,-30l16,-47l8,-23l1,-1zm15,34l-3,8l-9,26l0,2l25,0l-3,-11l-6,-19l-2,-6l-2,0z"/>
  <path transform="matrix(1 0 0 1 0 0)" id="svg_7" fill="#5C2E88" d="m158,745l17,0l10,2l16,8l10,10l6,10l1,6l-30,0l-5,-5l-5,-4l-6,-2l-10,0l-11,4l-7,7l-4,13l0,13l4,11l6,7l9,4l4,1l9,0l10,-5l6,-7l31,0l-2,6l-6,11l-9,9l-12,7l-13,3l-22,0l-13,-4l-9,-6l-9,-8l-6,-10l-4,-9l-2,-10l0,-15l3,-12l6,-12l9,-10l10,-7l12,-5l6,-1z"/>
  <path transform="translate(570,746)" id="svg_8" fill="#5C2F88" d="m0,0l28,0l20,60l5,19l2,1l3,-10l12,-37l10,-31l2,-2l26,0l1,3l-20,55l-14,40l-4,9l-33,0l-4,-8l-30,-86l-4,-10l0,-3z"/>
  <path transform="translate(698,746)" id="svg_9" fill="#5C2E88" d="m0,0l65,0l0,19l-1,1l-38,0l0,23l33,0l2,1l0,18l-1,1l-34,0l0,25l38,0l1,1l0,18l-65,0l-1,-11l0,-95l1,-1z"/>
  <path transform="translate(792,746)" id="svg_10" fill="#5C2F88" d="m0,0l21,0l5,1l0,87l31,0l2,1l0,17l-1,1l-58,0l-1,-1l0,-105l1,-1z"/>
  <path transform="translate(568,893)" id="svg_11" fill="#5D2F88" d="m0,0l6,0l5,8l6,11l3,-3l8,-15l1,-1l5,0l1,2l0,31l-5,0l0,-22l-6,10l-5,9l-3,0l-10,-19l0,22l-6,0l0,-33z"/>
  <path transform="translate(670,893)" id="svg_12" fill="#5D2F88" d="m0,0l5,0l7,8l8,10l2,3l1,-20l1,-1l5,0l0,32l-1,2l-5,-1l-9,-11l-7,-9l-1,20l-6,0l0,-33z"/>
  <path transform="translate(402,893)" id="svg_13" fill="#5E3089" d="m0,0l15,0l7,2l4,4l1,8l-3,6l-2,5l4,5l1,3l-4,1l-3,-1l-5,-8l-9,-2l0,10l-4,1l-2,-1l-1,-5l0,-26l1,-2zm7,5l-1,1l0,11l1,1l11,0l3,-4l-1,-6l-2,-2l-4,-1l-7,0z"/>
  <path transform="translate(265,893)" id="svg_14" fill="#5E3089" d="m0,0l6,1l14,18l3,2l-1,-8l1,-12l5,-1l0,33l-3,1l-6,-5l-12,-16l-1,-1l-1,21l-5,0l-1,-1l0,-20l1,-12z"/>
  <path transform="translate(626,893)" id="svg_15" fill="#5E318A" d="m0,0l23,0l1,5l-4,1l-14,0l-1,8l15,0l2,1l-1,4l-15,1l0,8l18,0l0,5l-5,1l-15,0l-4,-1l-1,-2l0,-30l1,-1z"/>
  <path transform="translate(221,893)" id="svg_16" fill="#5F318A" d="m0,0l23,0l1,3l-1,3l-17,-1l0,9l16,1l0,4l-16,0l0,7l1,1l16,0l1,5l-7,2l-9,0l-8,-1l-1,-3l0,-23l1,-7z"/>
  <path transform="translate(358,893)" id="svg_17" fill="#62368C" d="m0,0l23,0l0,6l-17,0l0,8l14,0l2,1l0,4l-16,1l0,8l16,-1l2,5l-4,2l-15,0l-5,-1l-1,-16l0,-15l1,-2z"/>
  <path transform="translate(502,893)" id="svg_18" fill="#5E3189" d="m0,0l5,0l13,29l1,5l-6,-1l-4,-6l-15,0l-4,6l-4,1l1,-7l9,-21l4,-6zm1,9l-4,7l-1,4l1,1l10,0l-1,-7l-3,-5l-2,0z"/>
  <path transform="translate(447,893)" id="svg_19" fill="#5C2E88" d="m0,0l25,0l1,5l-2,1l-9,0l0,27l-6,0l-1,-26l-9,-2l-1,-4l2,-1z"/>
  <path transform="translate(718,893)" id="svg_20" fill="#5D2F89" d="m0,0l25,0l1,4l-2,2l-9,0l0,27l-3,1l-3,-2l-1,-25l-9,-2l1,-5z"/>
  <path transform="translate(313,893)" id="svg_21" fill="#5C2E88" d="m0,0l25,0l1,4l-1,1l-9,2l-1,26l-2,1l-3,-1l-1,-26l-10,-2l1,-5z"/>
  <path transform="translate(541,893)" id="svg_22" fill="#63378D" d="m0,0l5,0l1,4l0,28l-1,1l-6,0l0,-32l1,-1z"/>
 </g>
</svg>