<svg version="1.1" xmlns="http://www.w3.org/2000/svg" viewBox="201.18260869565216 18.863999999999997 557.4434782608696 679.104" style="max-height: 500px" width="557.4434782608696" height="679.104">
 <g class="layer">
  <title>Layer 1</title>
  <path transform="translate(492,29)" id="svg_1" fill="#FD581D" d="m0,0l5,1l9,6l19,11l70,40l26,15l28,16l26,15l14,8l22,13l21,12l16,10l1,5l-22,44l-5,-1l-24,-14l-21,-12l-72,-42l-26,-15l-29,-17l-23,-13l-14,-8l-15,-9l-7,-1l-13,8l-23,13l-48,28l-52,30l-91,52l0,268l25,14l25,15l23,13l15,9l26,15l28,16l24,14l27,15l20,12l14,8l6,0l15,-9l18,-10l15,-9l18,-10l21,-12l24,-14l28,-16l26,-15l24,-14l38,-22l3,1l7,14l14,24l2,4l0,5l-10,6l-26,15l-23,13l-21,12l-25,14l-24,14l-26,15l-24,14l-21,12l-22,13l-23,13l-9,6l-5,-1l-28,-16l-24,-14l-26,-15l-17,-10l-26,-15l-16,-9l-19,-11l-28,-16l-26,-15l-39,-22l-27,-16l-5,-4l-1,-5l0,-323l4,-4l29,-17l21,-12l17,-10l21,-12l19,-11l17,-10l84,-48l23,-13l38,-22l9,-6l1,-1z"/>
  <path transform="translate(493,138)" id="svg_2" fill="#5C2E88" d="m0,0l16,8l13,8l18,10l27,16l24,14l26,15l14,8l22,13l26,15l5,3l0,221l-18,10l-15,9l-17,10l-3,0l-1,-218l-20,-12l-53,-31l-28,-16l-16,-9l-19,-11l-11,6l-23,13l-24,14l-23,13l-22,13l-26,15l-6,4l-1,46l0,174l-6,-2l-17,-10l-26,-15l-6,-4l0,-219l30,-18l16,-9l20,-12l16,-9l77,-45l28,-16l3,-2z"/>
  <path transform="translate(494,243)" id="svg_3" fill="#5E3189" d="m0,0l15,8l12,8l1,2l0,279l-2,4l-17,10l-7,5l-5,-1l-18,-11l-6,-4l-1,-93l0,-89l1,-102l8,-5l17,-10l2,-1z"/>
 </g>
</svg>